<svg data-v-d3f97b9e="" xmlns="http://www.w3.org/2000/svg" viewBox="0 0 306.6414494839512 163"><!----><!----><!----><g data-v-d3f97b9e="" id="a771da6d-7445-4619-b5f4-5413c3de7412" fill="white" transform="matrix(5.676442926425062,0,0,5.676442926425062,-7.890257152501761,94.71239024985735)"><path d="M1.39 11.61L1.39 11.61L1.39 11.13L1.39 11.13Q1.39 10.93 1.58 10.93L1.58 10.93L2.97 10.93L2.97 3.12L1.72 3.12L1.72 3.12Q1.53 3.12 1.53 2.93L1.53 2.93L1.53 2.45L1.53 2.45Q1.53 2.25 1.72 2.25L1.72 2.25L5.28 2.25L5.28 2.25Q5.47 2.25 5.47 2.45L5.47 2.45L5.47 2.93L5.47 2.93Q5.47 3.12 5.28 3.12L5.28 3.12L4.03 3.12L4.03 10.93L5.42 10.93L5.42 10.93Q5.61 10.93 5.61 11.13L5.61 11.13L5.61 11.61L5.61 11.61Q5.61 11.80 5.42 11.80L5.42 11.80L1.58 11.80L1.58 11.80Q1.39 11.80 1.39 11.61ZM13.16 1.64L13.16 11.62L13.16 11.62Q13.16 11.80 12.96 11.80L12.96 11.80L12.42 11.80L12.42 11.80Q12.22 11.80 12.22 11.62L12.22 11.62L12.22 10.60L12.22 10.60Q11.65 11.94 10.26 11.94L10.26 11.94L10.26 11.94Q9.62 11.94 9.09 11.63L9.09 11.63L9.09 11.63Q8.57 11.33 8.19 10.75L8.19 10.75L8.19 10.75Q7.81 10.16 7.65 9.49L7.65 9.49L7.65 9.49Q7.49 8.82 7.49 8.08L7.49 8.08L7.49 8.08Q7.49 6.76 8.22 5.66L8.22 5.66L8.22 5.66Q8.95 4.56 10.26 4.56L10.26 4.56L10.26 4.56Q10.96 4.56 11.46 4.91L11.46 4.91L11.46 4.91Q11.96 5.26 12.22 5.81L12.22 5.81L12.22 1.64L12.22 1.64Q12.22 1.46 12.42 1.46L12.42 1.46L12.96 1.46L12.96 1.46Q13.16 1.46 13.16 1.64L13.16 1.64ZM8.48 8.23L8.48 8.23L8.48 8.23Q8.47 8.67 8.57 9.18L8.57 9.18L8.57 9.18Q8.67 9.69 8.90 10.14L8.90 10.14L8.90 10.14Q9.13 10.60 9.48 10.86L9.48 10.86L9.48 10.86Q9.83 11.13 10.35 11.13L10.35 11.13L10.35 11.13Q10.86 11.13 11.21 10.86L11.21 10.86L11.21 10.86Q11.56 10.60 11.79 10.14L11.79 10.14L11.79 10.14Q12.03 9.69 12.11 9.18L12.11 9.18L12.11 9.18Q12.19 8.67 12.19 8.23L12.19 8.23L12.19 8.23Q12.19 7.83 12.11 7.30L12.11 7.30L12.11 7.30Q12.03 6.78 11.79 6.33L11.79 6.33L11.79 6.33Q11.56 5.88 11.21 5.61L11.21 5.61L11.21 5.61Q10.86 5.35 10.35 5.35L10.35 5.35L10.35 5.35Q9.83 5.35 9.48 5.61L9.48 5.61L9.48 5.61Q9.13 5.88 8.89 6.33L8.89 6.33L8.89 6.33Q8.65 6.78 8.56 7.30L8.56 7.30L8.56 7.30Q8.47 7.83 8.48 8.23ZM15.62 7.84L19.38 7.84L19.38 7.84Q19.38 7.41 19.27 6.96L19.27 6.96L19.27 6.96Q19.17 6.51 18.96 6.17L18.96 6.17L18.96 6.17Q18.47 5.36 17.56 5.36L17.56 5.36L17.56 5.36Q16.65 5.36 16.13 6.19L16.13 6.19L16.13 6.19Q15.89 6.59 15.76 7.03L15.76 7.03L15.76 7.03Q15.64 7.46 15.62 7.84L15.62 7.84ZM19.91 8.64L15.61 8.64L15.61 8.64Q15.60 9.09 15.77 9.61L15.77 9.61L15.77 9.61Q15.95 10.14 16.25 10.47L16.25 10.47L16.25 10.47Q16.56 10.79 16.95 10.99L16.95 10.99L16.95 10.99Q17.35 11.19 17.91 11.19L17.91 11.19L17.91 11.19Q18.40 11.19 18.82 11.09L18.82 11.09L18.82 11.09Q19.24 10.99 19.66 10.77L19.66 10.77L19.66 10.77Q19.82 10.70 19.84 10.86L19.84 10.86L19.84 11.51L19.84 11.51Q19.84 11.62 19.68 11.69L19.68 11.69L19.68 11.69Q19.25 11.86 18.84 11.94L18.84 11.94L18.84 11.94Q18.42 12.03 17.84 12.03L17.84 12.03L17.84 12.03Q16.34 12.03 15.46 11.03L15.46 11.03L15.46 11.03Q14.57 10.02 14.57 8.33L14.57 8.33L14.57 8.33Q14.57 6.79 15.44 5.64L15.44 5.64L15.44 5.64Q16.35 4.56 17.57 4.56L17.57 4.56L17.57 4.56Q18.33 4.56 18.82 4.83L18.82 4.83L18.82 4.83Q19.32 5.10 19.71 5.64L19.71 5.64L19.71 5.64Q20.41 6.58 20.41 8.19L20.41 8.19L20.41 8.19Q20.41 8.36 20.41 8.45L20.41 8.45L20.41 8.45Q20.40 8.54 20.36 8.58L20.36 8.58L20.36 8.58Q20.31 8.62 20.21 8.63L20.21 8.63L20.21 8.63Q20.10 8.64 19.91 8.64L19.91 8.64ZM26.45 8.29L26.45 8.29L26.45 8.29Q26.45 7.74 26.32 7.21L26.32 7.21L26.32 7.21Q26.19 6.68 25.93 6.24L25.93 6.24L25.93 6.24Q25.40 5.40 24.49 5.40L24.49 5.40L24.49 5.40Q23.53 5.40 23.04 6.24L23.04 6.24L23.04 6.24Q22.78 6.68 22.66 7.21L22.66 7.21L22.66 7.21Q22.54 7.74 22.54 8.29L22.54 8.29L22.54 8.29Q22.54 8.89 22.65 9.42L22.65 9.42L22.65 9.42Q22.76 9.95 23.04 10.33L23.04 10.33L23.04 10.33Q23.66 11.19 24.49 11.19L24.49 11.19L24.49 11.19Q25.45 11.19 25.93 10.33L25.93 10.33L25.93 10.33Q26.21 9.95 26.33 9.42L26.33 9.42L26.33 9.42Q26.45 8.89 26.45 8.29ZM27.41 8.29L27.41 8.29L27.41 8.29Q27.41 9.06 27.24 9.74L27.24 9.74L27.24 9.74Q27.06 10.42 26.70 10.88L26.70 10.88L26.70 10.88Q26.28 11.42 25.73 11.73L25.73 11.73L25.73 11.73Q25.19 12.03 24.49 12.03L24.49 12.03L24.49 12.03Q23.79 12.03 23.24 11.73L23.24 11.73L23.24 11.73Q22.69 11.42 22.27 10.88L22.27 10.88L22.27 10.88Q21.94 10.37 21.76 9.72L21.76 9.72L21.76 9.72Q21.59 9.06 21.59 8.29L21.59 8.29L21.59 8.29Q21.59 6.71 22.27 5.70L22.27 5.70L22.27 5.70Q23.07 4.56 24.49 4.56L24.49 4.56L24.49 4.56Q25.20 4.56 25.74 4.84L25.74 4.84L25.74 4.84Q26.28 5.11 26.70 5.70L26.70 5.70L26.70 5.70Q27.41 6.72 27.41 8.29ZM34.12 7.53L34.12 11.61L34.12 11.61Q34.12 11.80 33.92 11.80L33.92 11.80L33.36 11.80L33.36 11.80Q33.17 11.80 33.17 11.61L33.17 11.61L33.17 7.76L33.17 7.76Q33.17 6.47 32.82 5.93L32.82 5.93L32.82 5.93Q32.47 5.39 31.63 5.39L31.63 5.39L31.63 5.39Q30.88 5.39 30.38 5.99L30.38 5.99L30.38 5.99Q29.88 6.58 29.88 7.78L29.88 7.78L29.88 11.61L29.88 11.61Q29.88 11.80 29.68 11.80L29.68 11.80L29.12 11.80L29.12 11.80Q28.92 11.80 28.92 11.61L28.92 11.61L28.92 6.57L28.92 6.57Q28.92 5.96 28.92 5.63L28.92 5.63L28.92 5.63Q28.91 5.29 28.88 4.98L28.88 4.98L28.88 4.98Q28.87 4.89 28.93 4.84L28.93 4.84L28.93 4.84Q28.99 4.79 29.08 4.79L29.08 4.79L29.58 4.79L29.58 4.79Q29.78 4.79 29.78 4.98L29.78 4.98L29.78 5.77L29.78 5.77Q30.11 5.17 30.60 4.88L30.60 4.88L30.60 4.88Q31.08 4.59 31.71 4.59L31.71 4.59L31.71 4.59Q32.94 4.59 33.53 5.36L33.53 5.36L33.53 5.36Q34.12 6.13 34.12 7.53L34.12 7.53ZM40.18 8.57L40.18 8.13L39.91 8.13L39.91 8.13Q39.13 8.11 38.60 8.19L38.60 8.19L38.60 8.19Q38.07 8.27 37.69 8.46L37.69 8.46L37.69 8.46Q37.23 8.65 36.97 9.07L36.97 9.07L36.97 9.07Q36.72 9.48 36.72 9.91L36.72 9.91L36.72 9.91Q36.72 10.16 36.83 10.45L36.83 10.45L36.83 10.45Q36.95 10.74 37.18 10.89L37.18 10.89L37.18 10.89Q37.59 11.23 38.09 11.23L38.09 11.23L38.09 11.23Q38.58 11.23 38.91 11.04L38.91 11.04L38.91 11.04Q39.23 10.85 39.54 10.45L39.54 10.45L39.54 10.45Q39.84 10.05 40.01 9.55L40.01 9.55L40.01 9.55Q40.18 9.04 40.18 8.57L40.18 8.57ZM36.58 5.95L36.58 5.95L36.58 5.95Q36.51 5.99 36.45 5.97L36.45 5.97L36.45 5.97Q36.39 5.95 36.39 5.88L36.39 5.88L36.39 5.33L36.39 5.33Q36.39 5.15 36.58 5.07L36.58 5.07L36.58 5.07Q37.06 4.79 37.55 4.68L37.55 4.68L37.55 4.68Q38.05 4.56 38.63 4.56L38.63 4.56L38.63 4.56Q39.84 4.54 40.49 5.26L40.49 5.26L40.49 5.26Q41.13 5.99 41.13 7.07L41.13 7.07L41.13 10.33L41.13 10.33Q41.13 10.72 41.15 11.03L41.15 11.03L41.15 11.03Q41.16 11.34 41.19 11.62L41.19 11.62L41.19 11.62Q41.19 11.80 40.99 11.80L40.99 11.80L40.49 11.80L40.49 11.80Q40.29 11.80 40.29 11.62L40.29 11.62L40.29 10.63L40.29 10.63Q40.00 11.28 39.40 11.66L39.40 11.66L39.40 11.66Q38.79 12.03 37.98 12.03L37.98 12.03L37.98 12.03Q36.78 12.03 36.12 11.24L36.12 11.24L36.12 11.24Q35.90 10.99 35.78 10.64L35.78 10.64L35.78 10.64Q35.67 10.29 35.67 9.95L35.67 9.95L35.67 9.95Q35.67 9.23 36.07 8.62L36.07 8.62L36.07 8.62Q36.47 8.01 37.30 7.70L37.30 7.70L37.30 7.70Q38.09 7.34 40.00 7.34L40.00 7.34L40.18 7.34L40.18 7.01L40.18 7.01Q40.18 6.30 39.78 5.83L39.78 5.83L39.78 5.83Q39.38 5.36 38.63 5.36L38.63 5.36L38.63 5.36Q38.02 5.36 37.55 5.50L37.55 5.50L37.55 5.50Q37.09 5.63 36.58 5.95ZM47.98 11.79L47.98 11.79L47.98 11.79Q47.39 12.03 46.61 12.03L46.61 12.03L46.61 12.03Q45.33 12.03 44.97 11.28L44.97 11.28L44.97 11.28Q44.73 10.78 44.73 9.51L44.73 9.51L44.73 5.92L42.91 5.92L42.91 5.92Q42.71 5.92 42.71 5.73L42.71 5.73L42.71 5.31L42.71 5.31Q42.71 5.11 42.91 5.11L42.91 5.11L44.73 5.11L44.73 3.14L44.73 3.14Q44.73 2.93 44.91 2.93L44.91 2.93L45.50 2.93L45.50 2.93Q45.68 2.93 45.68 3.14L45.68 3.14L45.68 5.11L47.94 5.11L47.94 5.11Q48.13 5.11 48.13 5.31L48.13 5.31L48.13 5.73L48.13 5.73Q48.13 5.92 47.94 5.92L47.94 5.92L45.68 5.92L45.68 10.14L45.68 10.14Q45.68 11.19 46.83 11.19L46.83 11.19L46.83 11.19Q47.40 11.19 47.92 10.95L47.92 10.95L47.92 10.95Q47.99 10.92 48.05 10.95L48.05 10.95L48.05 10.95Q48.12 10.98 48.12 11.06L48.12 11.06L48.15 11.51L48.15 11.51Q48.17 11.70 47.98 11.79ZM50.62 7.84L54.38 7.84L54.38 7.84Q54.38 7.41 54.27 6.96L54.27 6.96L54.27 6.96Q54.17 6.51 53.96 6.17L53.96 6.17L53.96 6.17Q53.47 5.36 52.56 5.36L52.56 5.36L52.56 5.36Q51.65 5.36 51.13 6.19L51.13 6.19L51.13 6.19Q50.89 6.59 50.76 7.03L50.76 7.03L50.76 7.03Q50.64 7.46 50.62 7.84L50.62 7.84ZM54.91 8.64L50.61 8.64L50.61 8.64Q50.60 9.09 50.77 9.61L50.77 9.61L50.77 9.61Q50.95 10.14 51.25 10.47L51.25 10.47L51.25 10.47Q51.56 10.79 51.95 10.99L51.95 10.99L51.95 10.99Q52.35 11.19 52.91 11.19L52.91 11.19L52.91 11.19Q53.40 11.19 53.82 11.09L53.82 11.09L53.82 11.09Q54.24 10.99 54.66 10.77L54.66 10.77L54.66 10.77Q54.82 10.70 54.84 10.86L54.84 10.86L54.84 11.51L54.84 11.51Q54.84 11.62 54.68 11.69L54.68 11.69L54.68 11.69Q54.25 11.86 53.84 11.94L53.84 11.94L53.84 11.94Q53.42 12.03 52.84 12.03L52.84 12.03L52.84 12.03Q51.34 12.03 50.46 11.03L50.46 11.03L50.46 11.03Q49.57 10.02 49.57 8.33L49.57 8.33L49.57 8.33Q49.57 6.79 50.44 5.64L50.44 5.64L50.44 5.64Q51.35 4.56 52.57 4.56L52.57 4.56L52.57 4.56Q53.33 4.56 53.82 4.83L53.82 4.83L53.82 4.83Q54.32 5.10 54.71 5.64L54.71 5.64L54.71 5.64Q55.41 6.58 55.41 8.19L55.41 8.19L55.41 8.19Q55.41 8.36 55.41 8.45L55.41 8.45L55.41 8.45Q55.40 8.54 55.36 8.58L55.36 8.58L55.36 8.58Q55.31 8.62 55.21 8.63L55.21 8.63L55.21 8.63Q55.10 8.64 54.91 8.64L54.91 8.64Z"></path></g><!----><g data-v-d3f97b9e="" id="da967a1b-54b9-4516-9906-ca064b619182" transform="matrix(1,0,0,1,104.31300354003906,-5)" stroke="none" fill="white"><path d="M50 26.748c20.815 0 37.687-4.869 37.687-10.866C87.687 9.874 70.815 5 50 5 29.187 5 12.313 9.874 12.313 15.882c0 5.997 16.874 10.866 37.687 10.866zM50.006 47.566c-20.814 0-37.688-4.868-37.688-10.886 0-.062.033-.119.033-.175h-.038v14.061h.038C12.7 56.479 29.398 61.255 50 61.255c20.597 0 37.302-4.776 37.656-10.688h.03V36.701c-.024 6-16.881 10.865-37.68 10.865zM87.687 36.669v-.163h-.03c.005.056.03.108.03.163z"></path><path d="M50.006 64.441c-20.814 0-37.688-4.876-37.688-10.878 0-.061.033-.127.033-.189h-.038v14.063h.038C12.7 73.353 29.398 78.129 50 78.129c20.597 0 37.302-4.776 37.656-10.691h.03v-13.86c-.024 5.993-16.881 10.863-37.68 10.863zM87.687 53.548v-.174h-.03c.005.063.03.116.03.174z"></path><path d="M50.006 81.308c-20.814 0-37.688-4.865-37.688-10.873 0-.061.033-.118.033-.189h-.038V84.31h.038C12.7 90.23 29.398 95 50 95c20.597 0 37.302-4.77 37.656-10.69h.03V70.444c-.024 5.998-16.881 10.864-37.68 10.864zM87.687 70.423v-.178h-.03c.005.063.03.124.03.178zM50.006 30.312c-20.814 0-37.688-4.869-37.688-10.876 0-.066.033-.129.033-.186h-.038v14.06h.038C12.7 39.229 29.398 44.006 50 44.006c20.597 0 37.302-4.776 37.656-10.695h.03V19.45c-.024 5.998-16.881 10.862-37.68 10.862zM87.687 19.422v-.171h-.03c.005.057.03.109.03.171z"></path></g><!----></svg>