<svg data-v-29081953="" xmlns="http://www.w3.org/2000/svg" viewBox="0 0 300 300"><!----><defs data-v-29081953=""><!----></defs><rect data-v-29081953="" fill="#132554" x="0" y="0" width="300px" height="300px" class="logo-background-square"></rect><!----><defs data-v-29081953=""><!----></defs><g data-v-29081953="" id="d46e99a2-4c8b-40ca-be2a-419d8989c158" fill="#00A3DD" stroke="none" transform="matrix(2.4444444444444446,0,0,2.4444444444444446,27.777787102593305,27.777777777777764)"><path d="M50 26.748c20.815 0 37.687-4.869 37.687-10.866C87.687 9.874 70.815 5 50 5 29.187 5 12.313 9.874 12.313 15.882c0 5.997 16.874 10.866 37.687 10.866zM50.006 47.566c-20.814 0-37.688-4.868-37.688-10.886 0-.062.033-.119.033-.175h-.038v14.061h.038C12.7 56.479 29.398 61.255 50 61.255c20.597 0 37.302-4.776 37.656-10.688h.03V36.701c-.024 6-16.881 10.865-37.68 10.865zM87.687 36.669v-.163h-.03c.005.056.03.108.03.163z"></path><path d="M50.006 64.441c-20.814 0-37.688-4.876-37.688-10.878 0-.061.033-.127.033-.189h-.038v14.063h.038C12.7 73.353 29.398 78.129 50 78.129c20.597 0 37.302-4.776 37.656-10.691h.03v-13.86c-.024 5.993-16.881 10.863-37.68 10.863zM87.687 53.548v-.174h-.03c.005.063.03.116.03.174z"></path><path d="M50.006 81.308c-20.814 0-37.688-4.865-37.688-10.873 0-.061.033-.118.033-.189h-.038V84.31h.038C12.7 90.23 29.398 95 50 95c20.597 0 37.302-4.77 37.656-10.69h.03V70.444c-.024 5.998-16.881 10.864-37.68 10.864zM87.687 70.423v-.178h-.03c.005.063.03.124.03.178zM50.006 30.312c-20.814 0-37.688-4.869-37.688-10.876 0-.066.033-.129.033-.186h-.038v14.06h.038C12.7 39.229 29.398 44.006 50 44.006c20.597 0 37.302-4.776 37.656-10.695h.03V19.45c-.024 5.998-16.881 10.862-37.68 10.862zM87.687 19.422v-.171h-.03c.005.057.03.109.03.171z"></path></g><!----></svg>